PathFileType	4	(X/Y/Z)	/home/nbianco/projects/addbio/data/HamnerRunning2013/Processed/subject11//results/MarkerData/run300.trc
DataRate	CameraRate	NumFrames	NumMarkers	Units	OrigDataRate	OrigDataStartFrame	OrigNumFrames
100	100	10	42	m	100	126	203
Frame#	Time	C7			CLAV			LACR			LASI			LCAL			LFAradius			LFAsuperior			LFAulna			LLEL			LMEL			LMT5			LPSI			LTB1			LTB2			LTB3			LTH1			LTH2			LTH3			LTOE			LUA1			LUA2			LUA3			RACR			RASI			RCAL			RFAradius			RFAsuperior			RFAulna			RLEL			RMEL			RMT5			RPSI			RTB1			RTB2			RTB3			RTH1			RTH2			RTH3			RTOE			RUA1			RUA2			RUA3		
		X1	Y1	Z1	X2	Y2	Z2	X3	Y3	Z3	X4	Y4	Z4	X5	Y5	Z5	X6	Y6	Z6	X7	Y7	Z7	X8	Y8	Z8	X9	Y9	Z9	X10	Y10	Z10	X11	Y11	Z11	X12	Y12	Z12	X13	Y13	Z13	X14	Y14	Z14	X15	Y15	Z15	X16	Y16	Z16	X17	Y17	Z17	X18	Y18	Z18	X19	Y19	Z19	X20	Y20	Z20	X21	Y21	Z21	X22	Y22	Z22	X23	Y23	Z23	X24	Y24	Z24	X25	Y25	Z25	X26	Y26	Z26	X27	Y27	Z27	X28	Y28	Z28	X29	Y29	Z29	X30	Y30	Z30	X31	Y31	Z31	X32	Y32	Z32	X33	Y33	Z33	X34	Y34	Z34	X35	Y35	Z35	X36	Y36	Z36	X37	Y37	Z37	X38	Y38	Z38	X39	Y39	Z39	X40	Y40	Z40	X41	Y41	Z41	X42	Y42	Z42

127	1.69	0.759688	1.54292	-0.378538	0.867633	1.46259	-0.326056	0.850906	1.50891	-0.532359	0.840612	1.03948	-0.480193	0.311853	0.215073	-0.395452	1.029	1.18868	-0.496995	0.913854	1.18466	-0.612139	1.03666	1.12486	-0.526324	0.81184	1.18378	-0.65534	0.773021	1.17418	-0.588514	0.426357	0.0647979	-0.444551	0.664411	1.07564	-0.401592	0.568587	0.401063	-0.413622	0.479171	0.351895	-0.468348	0.480675	0.27067	-0.405464	0.69062	0.858116	-0.531276	0.737346	0.723262	-0.502905	0.638658	0.630617	-0.482981	0.482668	0.0697821	-0.356646	0.826209	1.41487	-0.609736	0.767598	1.33386	-0.591478	0.795146	1.26928	-0.636973	0.795009	1.53849	-0.204347	0.830182	1.04876	-0.220419	0.804143	0.149089	-0.304585	0.752294	1.12336	-0.0837537	0.631916	1.22614	-0.0822429	0.693344	1.08059	-0.0851102	0.558173	1.29973	-0.114394	0.566985	1.28901	-0.196314	0.966092	0.0871346	-0.215313	0.663305	1.07179	-0.300351	0.970427	0.430407	-0.273587	0.936223	0.377493	-0.218554	0.933077	0.265995	-0.283991	0.782878	0.856758	-0.171134	0.901524	0.784895	-0.180399	0.878959	0.654742	-0.213945	1.02482	0.0968666	-0.30209	0.70968	1.48455	-0.139421	0.636016	1.43531	-0.187517	0.631869	1.38344	-0.127674
128	1.7	0.759978	1.54643	-0.37738	0.86772	1.46685	-0.324301	0.852152	1.51411	-0.529877	0.843424	1.04326	-0.478151	0.300667	0.232466	-0.396958	1.02707	1.19982	-0.491261	0.916208	1.1933	-0.610529	1.03787	1.13583	-0.520921	0.81582	1.19042	-0.656608	0.774279	1.18053	-0.590001	0.402357	0.072093	-0.446087	0.668005	1.08031	-0.401974	0.557563	0.409094	-0.415521	0.467948	0.363031	-0.471475	0.467757	0.279768	-0.407728	0.685747	0.863163	-0.531787	0.732379	0.728184	-0.504055	0.632728	0.637866	-0.483905	0.458609	0.0739604	-0.357238	0.829248	1.42113	-0.609094	0.770202	1.34074	-0.593136	0.798365	1.27587	-0.638141	0.79432	1.54182	-0.203025	0.832068	1.05379	-0.220297	0.836967	0.134319	-0.302449	0.750033	1.1285	-0.0839139	0.62885	1.23083	-0.0839757	0.691446	1.08544	-0.0864373	0.555531	1.30449	-0.116894	0.565782	1.2941	-0.198691	1.00618	0.0900853	-0.216773	0.665591	1.07687	-0.299998	0.975598	0.431858	-0.27518	0.946611	0.375445	-0.218339	0.953542	0.26508	-0.285355	0.78294	0.862176	-0.170342	0.899774	0.786029	-0.180496	0.873429	0.656731	-0.214227	1.06181	0.105951	-0.305381	0.708187	1.48885	-0.139355	0.635567	1.43993	-0.188776	0.629579	1.38827	-0.128987
129	1.71	0.76051	1.549	-0.376246	0.867976	1.47	-0.322601	0.853035	1.51829	-0.527477	0.845824	1.04644	-0.476351	0.291672	0.249874	-0.398143	1.0248	1.20877	-0.486316	0.918241	1.20025	-0.609201	1.03872	1.14477	-0.516431	0.819802	1.1962	-0.658522	0.775107	1.1859	-0.591754	0.380179	0.0813085	-0.448794	0.671689	1.08403	-0.402575	0.549159	0.415401	-0.416672	0.460472	0.37301	-0.475254	0.456668	0.288147	-0.409594	0.682873	0.867384	-0.532063	0.729566	0.732282	-0.504947	0.63021	0.643572	-0.485344	0.436015	0.0784534	-0.358765	0.83193	1.42639	-0.608649	0.772932	1.34632	-0.594783	0.801678	1.28149	-0.639686	0.793943	1.54417	-0.201664	0.833835	1.05751	-0.220183	0.867529	0.122404	-0.300292	0.748853	1.13253	-0.0836235	0.626687	1.23422	-0.0851607	0.690756	1.08914	-0.0872098	0.553661	1.30787	-0.118829	0.56516	1.29761	-0.200411	1.04228	0.0955954	-0.218065	0.667995	1.08107	-0.299672	0.979899	0.43287	-0.277296	0.954272	0.373728	-0.217538	0.971144	0.264762	-0.286022	0.781497	0.865843	-0.170342	0.897254	0.78592	-0.181105	0.867737	0.657062	-0.213384	1.09331	0.116956	-0.308214	0.707061	1.49222	-0.13883	0.635693	1.4431	-0.189778	0.627903	1.39181	-0.130014
130	1.72	0.761066	1.55066	-0.375005	0.8682	1.47203	-0.321001	0.853207	1.52143	-0.525287	0.847519	1.04903	-0.474895	0.284554	0.267036	-0.399307	1.0223	1.21521	-0.482252	0.91976	1.2054	-0.608044	1.03892	1.15153	-0.512652	0.823323	1.20093	-0.660618	0.775462	1.19018	-0.593588	0.358074	0.0912331	-0.451052	0.675162	1.08674	-0.403054	0.54339	0.419703	-0.417136	0.455827	0.381392	-0.479187	0.447051	0.29547	-0.410988	0.682602	0.870246	-0.531784	0.729389	0.735003	-0.505232	0.630904	0.647251	-0.486894	0.414139	0.0827034	-0.361474	0.833934	1.43052	-0.608142	0.77533	1.3505	-0.596011	0.804704	1.28603	-0.641254	0.79385	1.54554	-0.200237	0.835405	1.05984	-0.22003	0.893999	0.113419	-0.299135	0.74879	1.13537	-0.0828213	0.625547	1.23627	-0.0856998	0.691214	1.09159	-0.0873531	0.55258	1.30976	-0.120102	0.565095	1.29943	-0.201434	1.07205	0.102061	-0.219234	0.670119	1.08401	-0.299279	0.982948	0.433281	-0.279353	0.959426	0.37222	-0.216575	0.985336	0.264919	-0.286159	0.779012	0.867537	-0.171062	0.894244	0.785133	-0.182159	0.862287	0.655765	-0.211816	1.11835	0.128354	-0.310085	0.706423	1.49442	-0.137931	0.636258	1.44486	-0.190254	0.626957	1.39385	-0.130657
131	1.73	0.761454	1.55142	-0.373578	0.868285	1.47298	-0.319534	0.852632	1.52348	-0.523348	0.848319	1.05103	-0.473813	0.278952	0.283791	-0.400702	1.01959	1.219	-0.478918	0.920606	1.2088	-0.60716	1.03827	1.15596	-0.509505	0.82587	1.2045	-0.662492	0.775267	1.19325	-0.595313	0.335357	0.101491	-0.451941	0.678137	1.08845	-0.40308	0.540237	0.421883	-0.417091	0.453168	0.388086	-0.482637	0.438716	0.301593	-0.411934	0.684913	0.871328	-0.53061	0.731723	0.735928	-0.504605	0.634448	0.648508	-0.488133	0.392115	0.0874154	-0.364522	0.835013	1.4334	-0.607371	0.776938	1.35331	-0.596525	0.806936	1.28939	-0.642512	0.794013	1.5459	-0.198712	0.836747	1.06083	-0.219802	0.91447	0.107254	-0.29955	0.74988	1.13698	-0.0814935	0.625547	1.23696	-0.0855309	0.692788	1.09272	-0.0867935	0.552337	1.31008	-0.120588	0.565635	1.29955	-0.201703	1.09357	0.107887	-0.22004	0.671637	1.08553	-0.298764	0.984649	0.432974	-0.28092	0.962881	0.370793	-0.216068	0.995791	0.265242	-0.286296	0.776341	0.867372	-0.172024	0.890949	0.783679	-0.183202	0.857237	0.653017	-0.21039	1.13659	0.139003	-0.310265	0.706353	1.4953	-0.136637	0.637072	1.44531	-0.189958	0.626816	1.3943	-0.130765
132	1.74	0.761581	1.55132	-0.371934	0.868302	1.47289	-0.31818	0.851686	1.52438	-0.521577	0.848214	1.05238	-0.473079	0.274652	0.300086	-0.402455	1.0167	1.22015	-0.47611	0.920606	1.21044	-0.606577	1.03665	1.15786	-0.506986	0.827011	1.20681	-0.663832	0.774419	1.1951	-0.596781	0.313161	0.112518	-0.45184	0.680099	1.08911	-0.402445	0.539568	0.421985	-0.416709	0.452105	0.393199	-0.484813	0.431755	0.306735	-0.412524	0.689071	0.870532	-0.528365	0.735863	0.734969	-0.502929	0.640253	0.647121	-0.488602	0.369905	0.0939859	-0.366614	0.835024	1.43502	-0.606252	0.777437	1.35481	-0.596236	0.807891	1.29155	-0.643246	0.794427	1.54528	-0.197057	0.837813	1.06058	-0.219487	0.927798	0.1032	-0.301363	0.752151	1.13734	-0.07967	0.626764	1.23624	-0.0846109	0.69549	1.09252	-0.0854828	0.553011	1.30881	-0.120147	0.566896	1.29801	-0.201109	1.10624	0.111817	-0.220329	0.672457	1.0857	-0.298089	0.985316	0.432028	-0.282077	0.965368	0.36923	-0.216454	1.00242	0.265219	-0.286855	0.774268	0.865692	-0.172577	0.887556	0.781027	-0.183533	0.852916	0.649243	-0.209778	1.14814	0.147758	-0.308592	0.706857	1.49479	-0.134851	0.637964	1.44451	-0.188714	0.627498	1.39316	-0.130165
133	1.75	0.761449	1.55033	-0.370063	0.868385	1.47177	-0.316893	0.850839	1.52403	-0.519839	0.847309	1.05293	-0.47266	0.271722	0.316	-0.404602	1.01362	1.2188	-0.473793	0.919578	1.21025	-0.606159	1.03398	1.15705	-0.505091	0.826464	1.20783	-0.664439	0.772819	1.19576	-0.597901	0.293531	0.12491	-0.451786	0.680403	1.08855	-0.401169	0.541148	0.420276	-0.416051	0.452623	0.396917	-0.485082	0.426436	0.311406	-0.412816	0.694185	0.868052	-0.525149	0.741011	0.732338	-0.500308	0.647564	0.64312	-0.487815	0.348521	0.10324	-0.367207	0.833949	1.43541	-0.604814	0.776697	1.35508	-0.595238	0.807241	1.2925	-0.643369	0.795097	1.54367	-0.195271	0.838493	1.05927	-0.219124	0.933936	0.100013	-0.303853	0.755604	1.13644	-0.077414	0.62922	1.23413	-0.0829081	0.699362	1.09103	-0.0834595	0.554669	1.30598	-0.118661	0.568991	1.2949	-0.199529	1.11089	0.113289	-0.220312	0.672601	1.08439	-0.297194	0.985293	0.430549	-0.283275	0.966912	0.367221	-0.217721	1.00528	0.264274	-0.287851	0.773112	0.862874	-0.172339	0.884378	0.776762	-0.18257	0.849955	0.64505	-0.210064	1.1533	0.153181	-0.306145	0.707892	1.49292	-0.132558	0.638878	1.44246	-0.186472	0.62896	1.39049	-0.128716
134	1.76	0.761097	1.54846	-0.367925	0.868545	1.46962	-0.315648	0.850203	1.52247	-0.518078	0.845685	1.05258	-0.47257	0.270449	0.33172	-0.407098	1.0102	1.21512	-0.472126	0.917336	1.20821	-0.605709	1.03013	1.1535	-0.503805	0.824129	1.20757	-0.664283	0.770408	1.1953	-0.598631	0.277894	0.138941	-0.452528	0.678725	1.08648	-0.399487	0.544784	0.417271	-0.415055	0.454746	0.39948	-0.483392	0.423072	0.316137	-0.412829	0.69983	0.864197	-0.521352	0.746758	0.728365	-0.497106	0.655731	0.636845	-0.485596	0.329441	0.11485	-0.366947	0.8319	1.43461	-0.603122	0.774724	1.35424	-0.593696	0.8049	1.29225	-0.642877	0.79602	1.54107	-0.193398	0.838653	1.05705	-0.218781	0.933423	0.0967548	-0.30623	0.760194	1.13431	-0.0748089	0.632871	1.23067	-0.0804101	0.704411	1.0883	-0.0808245	0.557308	1.30164	-0.11609	0.571898	1.29031	-0.196911	1.10888	0.112332	-0.220556	0.672043	1.08101	-0.29606	0.984389	0.428266	-0.284713	0.966903	0.364435	-0.219483	1.00451	0.261974	-0.289232	0.772703	0.859186	-0.171505	0.881943	0.771313	-0.180278	0.848869	0.640965	-0.210879	1.15248	0.153848	-0.30486	0.709398	1.48974	-0.12986	0.639902	1.43907	-0.183349	0.63112	1.3864	-0.126356
135	1.77	0.76057	1.54572	-0.365485	0.868625	1.4664	-0.314468	0.849465	1.51977	-0.516364	0.843393	1.05125	-0.472862	0.271186	0.347378	-0.409763	1.00627	1.2093	-0.471365	0.913732	1.20441	-0.605121	1.02506	1.14744	-0.503166	0.820075	1.20609	-0.663513	0.767156	1.1938	-0.598964	0.266333	0.154481	-0.454124	0.67539	1.0826	-0.397706	0.550394	0.413626	-0.41367	0.45839	0.401147	-0.480331	0.421957	0.321236	-0.412635	0.706199	0.859271	-0.517555	0.753176	0.723333	-0.493874	0.664449	0.628916	-0.482421	0.313923	0.12787	-0.366959	0.829073	1.43264	-0.601223	0.771611	1.35241	-0.591758	0.801027	1.29084	-0.641838	0.797161	1.53747	-0.191525	0.838248	1.0541	-0.218458	0.926785	0.0935861	-0.308129	0.765825	1.13102	-0.0719368	0.637602	1.22594	-0.0771382	0.710594	1.08436	-0.0776438	0.560845	1.29593	-0.112478	0.575415	1.28436	-0.19331	1.10121	0.108847	-0.221712	0.670788	1.07521	-0.294809	0.981853	0.424451	-0.285966	0.964751	0.360591	-0.221396	1.0003	0.258075	-0.291349	0.772705	0.854668	-0.170731	0.880899	0.765905	-0.177422	0.849482	0.63716	-0.21179	1.14619	0.148896	-0.306147	0.711303	1.48537	-0.126845	0.64119	1.4343	-0.179562	0.633898	1.38098	-0.123118
136	1.78	0.75993	1.54207	-0.362779	0.868471	1.46207	-0.313396	0.848273	1.51597	-0.514795	0.840609	1.04883	-0.473551	0.274238	0.362865	-0.41228	1.00183	1.20141	-0.471739	0.908745	1.19901	-0.604475	1.01891	1.13915	-0.50332	0.814509	1.20345	-0.662394	0.763041	1.19129	-0.598949	0.258161	0.171081	-0.456194	0.671233	1.07681	-0.396024	0.557858	0.409914	-0.412053	0.463558	0.402154	-0.476778	0.423306	0.326681	-0.412399	0.713622	0.853552	-0.514343	0.760479	0.717456	-0.491197	0.673737	0.620045	-0.479276	0.302698	0.141467	-0.367855	0.82569	1.42952	-0.59916	0.767547	1.34965	-0.589558	0.795971	1.28833	-0.640397	0.798481	1.53284	-0.189761	0.837399	1.05051	-0.217995	0.914535	0.0914946	-0.309754	0.772394	1.12671	-0.0688488	0.643257	1.22006	-0.0731522	0.717845	1.07927	-0.0739014	0.565158	1.28894	-0.107912	0.579285	1.27714	-0.188826	1.08835	0.102187	-0.224051	0.66904	1.06772	-0.293668	0.977044	0.41842	-0.286474	0.960341	0.355464	-0.223534	0.99284	0.252362	-0.294552	0.772956	0.849128	-0.170649	0.881653	0.761591	-0.175377	0.850825	0.633359	-0.212555	1.13503	0.138312	-0.309751	0.713537	1.47999	-0.123527	0.642844	1.4282	-0.175287	0.637238	1.37437	-0.119128
